<?xml version="1.0" standalone="no"?><!DOCTYPE svg PUBLIC "-//W3C//DTD SVG 1.1//EN" "http://www.w3.org/Graphics/SVG/1.1/DTD/svg11.dtd"><svg class="icon" height="512" viewBox="0 0 1024 1024" version="1.1" xmlns="http://www.w3.org/2000/svg"><path d="M503.515429 0C300.4416 0 170.715429 163.84 170.715429 366.943086c0 203.044571 283.326171 494.913829 332.8 494.913828 49.444571 0 332.8-291.869257 332.8-494.913828C836.315429 163.84 706.56 0 503.515429 0z m0 477.856914a144.969143 144.969143 0 0 1-145.086172-145.056914c0-80.164571 64.863086-145.056914 145.086172-145.056914s145.086171 64.892343 145.086171 145.056914a144.969143 144.969143 0 0 1-145.086171 145.056914z m-256 264.543086C126.303086 768 51.229257 808.96 51.229257 870.4c0 95.612343 204.8 153.6 460.8 153.6s460.8-57.987657 460.8-153.6c0-63.136914-80.135314-105.764571-209.890743-131.393829a33.323886 33.323886 0 0 0-39.292343 27.296915 33.323886 33.323886 0 0 0 27.355429 39.292343c97.250743 18.783086 155.355429 49.444571 155.355429 64.863085 0 3.393829-5.178514 8.543086-18.8416 18.783086-18.8416 11.936914-46.021486 23.873829-81.890743 34.172343-76.8 22.176914-180.955429 34.113829-291.898515 34.113828-110.913829 0-216.736914-11.936914-291.84-34.113828-35.810743-10.327771-63.107657-22.264686-81.92-34.172343-15.301486-10.269257-20.450743-15.36-20.450742-18.812343 0-13.663086 52.926171-42.656914 141.663085-61.44a32.709486 32.709486 0 0 0 25.6-40.96c-1.726171-18.8416-20.450743-30.749257-39.263085-25.629257z" fill="#5AE281" /></svg>